<svg id="visual" viewBox="0 0 900 600" width="900" height="600" xmlns="http://www.w3.org/2000/svg" xmlns:xlink="http://www.w3.org/1999/xlink" version="1.1"><rect x="0" y="0" width="900" height="600" fill="#14b789"></rect><path d="M0 190L30 176.8C60 163.7 120 137.3 180 119C240 100.7 300 90.3 360 112.2C420 134 480 188 540 220.5C600 253 660 264 720 252.7C780 241.3 840 207.7 870 190.8L900 174L900 0L870 0C840 0 780 0 720 0C660 0 600 0 540 0C480 0 420 0 360 0C300 0 240 0 180 0C120 0 60 0 30 0L0 0Z" fill="#535da1" stroke-linecap="round" stroke-linejoin="miter"></path></svg>